D:\PredSimResults\Vitruvian_Man\IG_v18ms_ATx70.mot
version=1
nRows=7
nColumns=31
inDegrees=yes
endheader
                time	         pelvis_tilt	           pelvis_tx	           pelvis_ty	       hip_flexion_r	        knee_angle_r	       ankle_angle_r	       hip_flexion_l	        knee_angle_l	       ankle_angle_l	    lumbar_extension	          arm_flex_r	          arm_flex_l	hamstrings_r/activation	bifemsh_r/activation	glut_max_r/activation	iliopsoas_r/activation	rect_fem_r/activation	  vasti_r/activation	gastroc_r/activation	 soleus_r/activation	tib_ant_r/activation	hamstrings_l/activation	bifemsh_l/activation	glut_max_l/activation	iliopsoas_l/activation	rect_fem_l/activation	  vasti_l/activation	gastroc_l/activation	 soleus_l/activation	tib_ant_l/activation	
          0.81134156	        -11.33303174	          1.44186353	          0.97996544	         29.87426214	          1.86855857	          4.20487558	         -4.10822449	        -13.54219685	         -7.59759143	         -2.94318479	          6.33848993	          6.35878002	          0.62100445	          0.05000476	          0.14921455	          0.05000240	          0.06443923	          0.07244424	          0.05000066	          0.06443553	          0.54020783	          0.05000069	          0.14749573	          0.05000032	          0.58524726	          0.05000190	          0.05000026	          0.28336375	          0.21078001	          0.05000012	
          0.81945497	        -11.62620287	          1.46061480	          0.97792981	         29.03598238	          2.39492885	          3.36356343	         -3.17904219	        -16.29658492	         -9.36844442	         -1.95494544	          5.60242434	          5.62288534	          0.54703438	          0.05000218	          0.16989709	          0.05000070	          0.05676372	          0.06383117	          0.05676093	          0.05676131	          0.70160607	          0.05000026	          0.12992695	          0.05000021	          0.51553486	          0.11673091	          0.05000022	          0.24961055	          0.18567269	          0.05000054	
          0.82756839	        -11.90414147	          1.47933979	          0.97588540	         28.21237295	          2.50140318	          2.44389763	         -2.06984932	        -19.27393730	        -11.61968968	         -0.97134081	          4.85728730	          4.87784243	          0.48187387	          0.12769260	          0.21592123	          0.05000023	          0.05000246	          0.05622998	          0.05000025	          0.05000018	          0.80635012	          0.05524259	          0.11445099	          0.05000119	          0.45412631	          0.13709303	          0.05000020	          0.21987792	          0.16355606	          0.28257152	
          0.83568181	        -12.17849516	          1.49765974	          0.97413700	         27.36833117	          2.82787910	          0.57467897	         -0.78628906	        -22.38517454	        -14.17078229	         -0.03575366	          4.15787003	          4.17843141	          0.42447501	          0.12163611	          0.22666755	          0.05000025	          0.05000055	          0.05000445	          0.05000029	          0.05000010	          0.87432626	          0.05000051	          0.10081868	          0.05000049	          0.40003252	          0.25138398	          0.05000017	          0.19368710	          0.14407390	          0.24891268	
          0.84379522	        -12.44183518	          1.51537363	          0.97287940	         26.55025093	          3.23068313	         -1.80554366	          0.60523066	        -25.51917374	        -15.64445838	          0.81119650	          3.53724548	          3.55771896	          0.37391342	          0.10714960	          0.22633394	          0.05000031	          0.05000088	          0.05001195	          0.05000034	          0.05000014	          0.91844100	          0.05000059	          0.08881084	          0.05000035	          0.35238218	          0.32561602	          0.05000019	          0.17061595	          0.12691238	          0.29729112	
          0.85190864	        -12.68618396	          1.53246664	          0.97225667	         25.78020370	          3.52641174	         -3.88698579	          2.03433167	        -28.51589003	        -15.87678395	          1.55299570	          3.00122098	          3.02150714	          0.32937472	          0.09438813	          0.23053619	          0.05000034	          0.05000089	          0.05001081	          0.05000036	          0.05000016	          0.94707029	          0.05000077	          0.10337920	          0.05000027	          0.31040778	          0.40652332	          0.05000012	          0.15029295	          0.11179507	          0.42082495	
          0.86002205	        -12.90604682	          1.54900255	          0.97232709	         25.03946481	          3.71247093	         -5.52232103	          3.44467130	        -31.21048357	        -15.57640790	          2.18786600	          2.54355704	          2.56355491	          0.29014116	          0.08314636	          0.23541940	          0.05000035	          0.05000091	          0.05001274	          0.05000040	          0.05000018	          0.96564994	          0.05000087	          0.13207701	          0.05000026	          0.27343324	          0.47357363	          0.05000012	          0.13239075	          0.09847848	          0.41329779	
